<svg xmlns="http://www.w3.org/2000/svg" viewBox="0 0 1024 1024" width="1024" height="1024" role="img" aria-label="Black cat silhouette with pale eyes">
<rect width="100%" height="100%" fill="#4f5762"/>
<g transform="scale(0.613908873)">
<path d="M 954 1394 L 941 1393 L 890 1398 L 837 1413 L 819 1416 L 804 1415 L 798 1418 L 821 1426 L 843 1426 L 877 1419 L 902 1408 L 931 1402 L 939 1398 L 953 1396 Z M 870 1393 L 859 1396 L 835 1397 L 821 1404 L 819 1407 L 840 1405 L 845 1403 L 855 1403 L 862 1400 Z M 1051 1387 L 996 1389 L 979 1392 L 943 1405 L 953 1406 L 972 1402 L 1027 1400 L 1044 1394 Z M 1410 1358 L 1411 1361 L 1453 1382 L 1467 1383 L 1472 1379 L 1469 1376 L 1453 1376 L 1440 1364 L 1428 1358 Z M 350 1257 L 349 1270 L 352 1294 L 363 1331 L 364 1315 L 362 1301 L 354 1266 Z M 1401 1258 L 1398 1256 L 1386 1262 L 1363 1266 L 1342 1281 L 1339 1287 L 1348 1286 L 1383 1272 Z M 324 1107 L 323 1118 L 329 1134 L 362 1180 L 364 1188 L 365 1183 L 357 1161 Z M 317 1001 L 317 1005 L 334 1039 L 333 1051 L 335 1060 L 333 1068 L 341 1082 L 363 1110 L 361 1111 L 339 1088 L 335 1086 L 333 1090 L 354 1134 L 386 1211 L 384 1213 L 335 1163 L 333 1164 L 342 1198 L 357 1241 L 371 1312 L 383 1355 L 381 1357 L 376 1346 L 372 1346 L 375 1383 L 372 1398 L 371 1435 L 377 1432 L 378 1442 L 369 1460 L 364 1484 L 364 1510 L 367 1511 L 368 1505 L 372 1501 L 374 1502 L 377 1540 L 379 1541 L 386 1531 L 388 1532 L 388 1540 L 367 1595 L 367 1601 L 370 1601 L 377 1593 L 379 1594 L 369 1628 L 372 1629 L 378 1620 L 382 1617 L 384 1618 L 379 1638 L 378 1667 L 1667 1667 L 1667 1582 L 1662 1579 L 1653 1580 L 1628 1559 L 1631 1554 L 1621 1549 L 1608 1535 L 1595 1526 L 1594 1520 L 1580 1515 L 1567 1505 L 1548 1496 L 1549 1494 L 1560 1493 L 1560 1489 L 1550 1487 L 1536 1480 L 1511 1464 L 1488 1459 L 1487 1455 L 1504 1453 L 1506 1448 L 1493 1445 L 1481 1439 L 1451 1416 L 1453 1414 L 1466 1418 L 1483 1419 L 1497 1413 L 1495 1409 L 1465 1401 L 1448 1391 L 1440 1390 L 1403 1363 L 1390 1358 L 1392 1355 L 1431 1342 L 1452 1330 L 1449 1328 L 1441 1332 L 1415 1334 L 1434 1316 L 1434 1314 L 1422 1317 L 1417 1315 L 1444 1289 L 1440 1288 L 1425 1299 L 1399 1307 L 1346 1316 L 1346 1313 L 1368 1302 L 1382 1290 L 1364 1290 L 1340 1296 L 1322 1305 L 1317 1305 L 1316 1302 L 1324 1296 L 1326 1290 L 1317 1289 L 1316 1287 L 1344 1266 L 1318 1275 L 1304 1283 L 1298 1283 L 1309 1271 L 1330 1259 L 1370 1247 L 1404 1241 L 1411 1236 L 1416 1224 L 1413 1223 L 1410 1227 L 1403 1229 L 1399 1228 L 1401 1223 L 1380 1227 L 1368 1241 L 1355 1242 L 1354 1238 L 1363 1230 L 1358 1224 L 1379 1201 L 1384 1192 L 1383 1189 L 1380 1189 L 1368 1195 L 1356 1206 L 1340 1214 L 1329 1224 L 1309 1235 L 1297 1236 L 1295 1234 L 1297 1225 L 1292 1227 L 1284 1226 L 1290 1213 L 1278 1211 L 1280 1204 L 1279 1180 L 1273 1149 L 1264 1120 L 1260 1130 L 1257 1132 L 1248 1115 L 1236 1176 L 1216 1227 L 1209 1251 L 1191 1292 L 1164 1314 L 1160 1311 L 1159 1295 L 1154 1295 L 1148 1305 L 1142 1324 L 1117 1349 L 1105 1370 L 1093 1348 L 1090 1348 L 1087 1355 L 1081 1360 L 1079 1358 L 1078 1345 L 1074 1343 L 1066 1374 L 1054 1405 L 1050 1401 L 1012 1409 L 977 1409 L 929 1414 L 902 1428 L 890 1438 L 854 1460 L 852 1459 L 872 1444 L 886 1430 L 893 1426 L 894 1422 L 889 1422 L 855 1437 L 825 1438 L 816 1436 L 814 1439 L 795 1447 L 776 1452 L 777 1448 L 794 1440 L 801 1434 L 795 1436 L 753 1422 L 753 1419 L 765 1419 L 778 1415 L 767 1414 L 733 1401 L 733 1398 L 763 1403 L 795 1402 L 818 1398 L 828 1389 L 858 1390 L 859 1388 L 844 1388 L 798 1381 L 766 1373 L 766 1370 L 813 1375 L 866 1375 L 881 1377 L 882 1384 L 879 1389 L 907 1380 L 942 1382 L 957 1377 L 926 1373 L 899 1365 L 881 1354 L 847 1341 L 813 1323 L 789 1314 L 762 1299 L 736 1288 L 689 1259 L 641 1235 L 549 1184 L 534 1173 L 525 1170 L 485 1141 L 434 1116 L 420 1099 L 417 1080 L 404 1066 L 392 1067 L 339 1018 Z M 962 1521 L 963 1523 L 944 1540 L 925 1565 L 915 1581 L 912 1584 L 910 1584 L 909 1581 L 914 1572 L 932 1548 L 952 1526 Z M 1007 1520 L 1006 1522 L 987 1534 L 955 1564 L 953 1563 L 964 1546 L 985 1526 L 995 1521 L 1004 1519 Z M 952 1509 L 940 1518 L 925 1533 L 923 1532 L 939 1513 L 949 1508 Z M 790 1507 L 789 1509 L 760 1518 L 736 1530 L 722 1540 L 719 1539 L 734 1522 L 750 1512 L 774 1506 Z M 999 1446 L 961 1470 L 918 1512 L 915 1511 L 925 1496 L 956 1467 L 985 1447 Z M 1361 1337 L 1360 1339 L 1345 1343 L 1318 1347 L 1278 1348 L 1276 1346 L 1277 1344 L 1303 1337 Z M 302 945 L 296 954 L 297 962 L 302 969 L 317 984 L 323 992 L 326 999 L 326 995 L 323 990 L 319 976 L 309 960 Z M 297 781 L 297 793 L 302 804 L 316 818 L 318 816 L 315 814 L 312 806 L 302 792 Z M 318 762 L 317 776 L 320 783 L 328 791 L 344 802 L 367 814 L 364 810 L 353 803 L 327 779 L 322 772 Z M 343 749 L 341 752 L 341 756 L 344 763 L 356 776 L 359 777 L 357 771 L 347 758 Z M 377 638 L 372 673 L 384 697 L 394 710 L 391 680 L 381 643 Z M 431 558 L 424 563 L 414 594 L 411 618 L 409 619 L 404 614 L 402 631 L 395 620 L 390 604 L 388 602 L 385 604 L 386 622 L 399 661 L 410 635 L 432 606 L 441 589 L 441 585 L 430 587 Z M 489 188 L 478 216 L 477 233 L 468 272 L 466 291 L 458 312 L 456 331 L 448 351 L 440 387 L 433 404 L 422 462 L 421 509 L 433 552 L 446 585 L 450 604 L 433 619 L 405 663 L 402 691 L 406 711 L 410 719 L 406 727 L 395 728 L 379 708 L 360 673 L 353 645 L 349 647 L 346 655 L 342 680 L 344 717 L 350 737 L 359 756 L 377 780 L 375 781 L 365 770 L 363 771 L 363 777 L 369 790 L 367 792 L 358 787 L 341 771 L 339 772 L 339 777 L 353 793 L 387 820 L 382 821 L 359 816 L 329 801 L 312 788 L 318 808 L 326 823 L 339 839 L 337 841 L 292 809 L 280 798 L 277 798 L 287 829 L 302 846 L 300 847 L 289 839 L 287 841 L 317 875 L 315 876 L 268 842 L 267 845 L 272 859 L 298 897 L 306 931 L 320 961 L 374 1017 L 399 1037 L 397 1038 L 371 1020 L 361 1015 L 359 1016 L 430 1080 L 504 1138 L 633 1217 L 667 1235 L 680 1245 L 795 1305 L 892 1352 L 920 1361 L 942 1363 L 980 1363 L 1002 1361 L 1020 1356 L 1034 1349 L 1070 1321 L 1135 1259 L 1154 1232 L 1173 1183 L 1190 1152 L 1268 1047 L 1268 1045 L 1262 1047 L 1260 1045 L 1274 1022 L 1271 1021 L 1260 1034 L 1258 1031 L 1277 987 L 1286 946 L 1285 942 L 1275 965 L 1263 981 L 1261 980 L 1261 974 L 1268 964 L 1274 949 L 1283 896 L 1281 894 L 1278 896 L 1271 916 L 1260 928 L 1260 916 L 1268 894 L 1271 846 L 1268 852 L 1268 863 L 1262 874 L 1261 849 L 1253 818 L 1228 763 L 1226 719 L 1229 708 L 1243 683 L 1271 656 L 1290 632 L 1296 610 L 1298 568 L 1300 567 L 1315 578 L 1326 582 L 1325 569 L 1339 569 L 1341 567 L 1339 558 L 1340 518 L 1352 521 L 1355 520 L 1357 514 L 1357 497 L 1354 483 L 1356 467 L 1355 432 L 1357 424 L 1354 326 L 1357 304 L 1355 303 L 1303 339 L 1248 370 L 1235 374 L 1233 376 L 1234 387 L 1199 401 L 1197 405 L 1200 409 L 1198 411 L 1174 417 L 1136 434 L 1097 465 L 1084 480 L 1061 481 L 1025 497 L 994 483 L 944 467 L 908 462 L 883 462 L 782 474 L 762 479 L 734 490 L 710 459 L 674 420 L 615 339 L 604 319 L 579 287 L 565 273 L 541 240 L 528 228 L 501 194 Z M 339 951 L 341 950 L 363 970 L 418 1028 L 414 1028 L 393 1013 L 350 968 Z M 1208 936 L 1210 958 L 1173 1006 L 1108 1017 L 1106 1010 L 1107 944 L 1109 941 L 1137 924 L 1165 911 L 1189 922 Z M 694 889 L 707 883 L 780 867 L 795 873 L 842 903 L 858 916 L 856 983 L 852 985 L 774 985 L 759 981 L 737 964 L 692 918 L 691 909 Z M 628 527 L 627 529 L 607 535 L 584 553 L 570 569 L 551 602 L 548 602 L 562 568 L 572 554 L 586 540 L 604 530 L 623 526 Z M 1149 523 L 1179 515 L 1190 515 L 1198 521 L 1204 548 L 1204 568 L 1200 590 L 1198 589 L 1199 555 L 1196 539 L 1191 529 L 1185 524 L 1149 526 Z M 603 510 L 597 516 L 571 533 L 555 548 L 553 547 L 560 535 L 569 527 L 583 518 L 601 509 Z M 576 509 L 575 511 L 555 520 L 543 528 L 541 527 L 543 524 L 560 513 L 569 509 Z M 578 479 L 576 482 L 547 501 L 545 500 L 554 490 L 576 478 Z" fill="#000000" fill-rule="evenodd"/>
<path d="M 695 888 L 692 907 L 693 917 L 736 961 L 763 981 L 844 983 L 853 981 L 855 965 L 855 916 L 841 904 L 783 868 L 773 869 L 730 878 Z M 1206 936 L 1187 922 L 1167 912 L 1163 912 L 1141 922 L 1108 943 L 1107 950 L 1108 1014 L 1172 1003 L 1207 957 Z" fill="#ebeafa"/>
<path d="M 791 882 L 790 883 L 790 915 L 789 916 L 789 925 L 786 929 L 783 928 L 778 921 L 779 920 L 779 900 L 778 899 L 778 894 L 777 894 L 776 896 L 775 906 L 774 907 L 775 927 L 777 931 L 786 938 L 790 937 L 796 929 L 796 912 L 797 911 L 796 909 L 796 892 L 795 891 L 795 887 Z M 1151 927 L 1149 930 L 1148 961 L 1144 966 L 1143 965 L 1143 957 L 1142 956 L 1142 936 L 1140 936 L 1139 938 L 1138 951 L 1137 952 L 1137 973 L 1139 980 L 1142 980 L 1154 965 L 1154 944 L 1155 943 L 1154 942 L 1154 933 L 1153 932 L 1154 929 Z" fill="#ffffff"/>
</g>
</svg>